# xmcd
#
# Track frame offsets: 
#        150
#        5812
#        21567
#        39759
#        55950
#        60085
#        79364
#        98522
#        109295
#        123574
#        142932
#        158477
#        182169
#        199095
#        220074
#        244192
#        262917
#        283366
#        287075
#        295648
#        326548
#
# Disc length: 4637 seconds
#
# Revision: 0
# Processed by: cddbd v1.5.2PL0 Copyright (c) Steve Scherf et al.
# Submitted via: ExactAudioCopy v1.0b3
#
DISCID=2f121b15
DTITLE=DJ PMX - The Original
DYEAR=2008
DGENRE=Hip Hop
TTITLE0=Intro [The Original] feat. Koz
TTITLE1=Stay By My Side feat. Dazzle 4 Life
TTITLE2=Miss Luxury feat. Hi-D, Gipper
TTITLE3=Try So Hard feat. AK-69, May J.
TTITLE4=Skit feat. One-G
TTITLE5=Recollection [80's Night] feat. Phobia Of Thug, Jamosa
TTITLE6=Look At Me feat. Maccho [Ozrosaurus], Big Ron, Koz, Say
TTITLE7=4:20 feat. Maccho [Ozrosaurus]
TTITLE8=Keep On Rollin’ feat. Destino, Mr.Low-D, Iz
TTITLE9=My Baby Girl feat. Fingazz, El Latino
TTITLE10=Seaside Lover feat. Big Iz' Mafia, Zang Haozi, Shintai
TTITLE11=Reason [This is why we rap] feat. Zeebra, Mummy-D, Maccho [Oz
TTITLE11=rosaurus]
TTITLE12=Footprint feat. II-J, Iz, KSKtheONE
TTITLE13=Just Another Day feat. 青山テルマ, Kayzabro
TTITLE14=4 My City feat. AK-69, Hokt, Richee, Hiro of LGYankees, Big I
TTITLE14=z’ Mafia
TTITLE15=Turn Off Tha Lights feat. Big Ron, Maccho [Ozrosaurus], Koz
TTITLE16=Last Mail feat. Hyena, Say
TTITLE17=Outro feat. Lil Tintin'
TTITLE18=Pubb’s Groove Ⅴ
TTITLE19=Miss Luxury [P.V. Version] feat. Maccho [Ozrosaurus], Gipper,
TTITLE19=Koz, Hi-D, Foxxi misQ
TTITLE20=Data
EXTD=
EXTT0=
EXTT1=
EXTT2=
EXTT3=
EXTT4=
EXTT5=
EXTT6=
EXTT7=
EXTT8=
EXTT9=
EXTT10=
EXTT11=
EXTT12=
EXTT13=
EXTT14=
EXTT15=
EXTT16=
EXTT17=
EXTT18=
EXTT19=
EXTT20=
PLAYORDER=
